<svg xmlns="http://www.w3.org/2000/svg" viewBox="0 0 56 56">
  <defs>
    <style>
      .cls-1 {
        fill: none;
        opacity: 0.2;
      }

      .cls-2 {
        fill: #f67853;
      }

      .cls-3 {
        fill: #f8a68e;
      }
    </style>
  </defs>
  <g id="레이어_2" data-name="레이어 2">
    <g id="Layer_1" data-name="Layer 1">
      <rect class="cls-1" width="56" height="56"/>
      <path class="cls-2" d="M4,13V38a2,2,0,0,0,2,2h4a6,6,0,0,1,12,0H34a6,6,0,0,1,12,0h4a2,2,0,0,0,2-2V13a2,2,0,0,0-2-2H6A2,2,0,0,0,4,13Z"/>
      <circle class="cls-2" cx="16" cy="40" r="5"/>
      <circle class="cls-2" cx="40" cy="40" r="5"/>
      <rect class="cls-3" x="8" y="19" width="10" height="10" rx="2"/>
      <rect class="cls-3" x="23" y="19" width="10" height="10" rx="2"/>
      <rect class="cls-3" x="38" y="19" width="10" height="10" rx="2"/>
    </g>
  </g>
</svg>
