<svg id="레이어_1" data-name="레이어 1" xmlns="http://www.w3.org/2000/svg" viewBox="0 0 28 43.77"><defs><style>.cls-1{fill:#f67853;}.cls-2{fill:#f8a68e;}</style></defs><path class="cls-1" d="M33.73,38.3l-11,1.57A1.48,1.48,0,0,1,21,38.4h0a1.49,1.49,0,0,1,1.27-1.47l11-1.57A1.48,1.48,0,0,1,35,36.83h0A1.49,1.49,0,0,1,33.73,38.3Z" transform="translate(-14 -6.11)"/><path class="cls-1" d="M33.73,48.3l-11,1.57A1.48,1.48,0,0,1,21,48.4h0a1.49,1.49,0,0,1,1.27-1.47l11-1.57A1.48,1.48,0,0,1,35,46.83h0A1.49,1.49,0,0,1,33.73,48.3Z" transform="translate(-14 -6.11)"/><path class="cls-1" d="M33.73,43.3l-11,1.57A1.48,1.48,0,0,1,21,43.4h0a1.49,1.49,0,0,1,1.27-1.47l11-1.57A1.48,1.48,0,0,1,35,41.83h0A1.49,1.49,0,0,1,33.73,43.3Z" transform="translate(-14 -6.11)"/><path class="cls-2" d="M28,15.11a5,5,0,0,0-5,5v5H33v-5A5,5,0,0,0,28,15.11Z" transform="translate(-14 -6.11)"/><path class="cls-1" d="M28,6.11a14,14,0,1,0,14,14A14,14,0,0,0,28,6.11Zm5,19H23v-5a5,5,0,0,1,10,0Z" transform="translate(-14 -6.11)"/></svg>